<svg xmlns="http://www.w3.org/2000/svg" viewBox="0 0 538.64 147.72"><defs><style>.cls-1{fill:#231f20;}</style></defs><g id="Layer_2" data-name="Layer 2"><g id="Layer_1-2" data-name="Layer 1"><polygon class="cls-1" points="87.18 115.83 98.18 115.83 111.27 105.28 76.12 78.01 76.12 50.01 65.12 60.83 65.12 78.01 100.27 105.28 87.18 115.83"/><polygon class="cls-1" points="42.99 124.71 44.28 126.13 48.47 122.34 47.18 120.92 15.39 85.82 13.94 84.22 9.75 88.01 11.2 89.61 42.99 124.71"/><path class="cls-1" d="M0,0V147.1H122V0ZM117,142.1H59l3.15-26.27H76.53l13.09-10.55L54.47,78V50L19.26,84.63l28.26,31.2h3.66L48,142.1H37.38l1.92-16L10,93.74,5,98.65V5H117Z"/><path class="cls-1" d="M145.35,61.78V0l31.38.14A12.34,12.34,0,0,1,183,3.56a10.22,10.22,0,0,1,3.21,6.2l.28,2.37h-.14v11h.14l-.28,2.23A10.22,10.22,0,0,1,183,31.59,12.42,12.42,0,0,1,176.73,35l-2.09.14v.14H153.86V61.78Zm29-35.14,1.26-.28a2.61,2.61,0,0,0,1.95-1.95l.28-1.26v-11l-.28-1.39a3.35,3.35,0,0,0-1.95-2l-1.26-.14V8.51h-20.5V26.64Z"/><path class="cls-1" d="M235.84,61.78,224,35.15H212.55V61.78H204V0l31.38.14q8.51,1.82,9.49,9.62l.28,2.23h-.14V23.15h.14l-.28,2.23q-1,7.82-9.49,9.63l-2.09.14,11.86,26.63Zm-2.79-35.14,1.26-.28a3.35,3.35,0,0,0,1.95-1.95l.28-1.26V12l-.28-1.25a3.35,3.35,0,0,0-1.95-2l-1.26-.14V8.51h-20.5V26.64Z"/><path class="cls-1" d="M274.87,61.92l-2.37-.28a10.15,10.15,0,0,1-6.21-3.2,12.32,12.32,0,0,1-3.41-6.28l-.14-2.37.14-40a12.34,12.34,0,0,1,3.41-6.27A10.22,10.22,0,0,1,272.5.28L274.87,0V.14h16.87V0l2.38.28a10.22,10.22,0,0,1,6.2,3.21,12.35,12.35,0,0,1,3.42,6.27l.14,2.37-.14,40a12.34,12.34,0,0,1-3.42,6.28,10.15,10.15,0,0,1-6.2,3.2l-2.38.28v-.14H274.87Zm16.87-8.64,1.4-.28a3.4,3.4,0,0,0,1.95-1.82l.14-1.39h.14V12.13h-.14l-.14-1.25a3.35,3.35,0,0,0-1.95-2l-1.4-.28H274.87l-1.4.28a4,4,0,0,0-2,2l-.14,1.25h-.14V49.79h.14l.14,1.39a3.39,3.39,0,0,0,2,1.82l1.4.28Z"/><path class="cls-1" d="M333.56,61.92l-2.37-.28a10.18,10.18,0,0,1-6.21-3.2,12.32,12.32,0,0,1-3.41-6.28l-.14-2.37V40.58h8.5v9.21h.14l.14,1.25a3.38,3.38,0,0,0,2,2l1.39.28h16.88l1.39-.28a4,4,0,0,0,1.95-2l.14-1.25h.14V0h8.51l-.14,52.16q-1.68,8.51-9.62,9.48l-2.37.28v-.14H333.56Z"/><path class="cls-1" d="M380.12,61.78V0h41.14V8.51H388.62V26.64h24v8.51h-24V53.28h32.64v8.5Z"/><path class="cls-1" d="M450.94,61.92l-2.37-.28a10.2,10.2,0,0,1-6.21-3.2A12.32,12.32,0,0,1,439,52.16l-.14-2.37.14-40a12.34,12.34,0,0,1,3.41-6.27A10.27,10.27,0,0,1,448.57.28L450.94,0V.14h16.88V0l2.37.28a10.27,10.27,0,0,1,6.21,3.21,12.34,12.34,0,0,1,3.41,6.27l.14,2.37v4.75h-8.51V12.13h-.14l-.14-1.25a3.93,3.93,0,0,0-2-2l-1.39-.28H450.94l-1.39.28a3.35,3.35,0,0,0-1.95,2l-.14,1.25h-.14V49.79h.14l.14,1.39A2.9,2.9,0,0,0,449.55,53l1.39.28h16.88l1.39-.28a3.33,3.33,0,0,0,2-1.82l.14-1.39h.14V45.05H480v4.74l-.14,2.37a12.32,12.32,0,0,1-3.41,6.28,10.2,10.2,0,0,1-6.21,3.2l-2.37.28v-.14H450.94Z"/><path class="cls-1" d="M513.82,61.78V8.51H497.5V0h41.14V8.51H522.32V61.78Z"/><path class="cls-1" d="M145.35,147.72V85.93h8.51V112l21.48-26.08h11l-24.13,29.43,24.27,32.36H175.76l-19.11-25.53-2.79,3.35v22.18Z"/><path class="cls-1" d="M194.58,147.72V85.93h41.15v8.51H203.09v18.13h24v8.51h-24v18.13h32.64v8.51Z"/><path class="cls-1" d="M275.06,147.72,263.2,121.08H251.76v26.64h-8.5V85.93l31.38.14q8.5,1.82,9.48,9.62l.28,2.24h-.14v11.15h.14l-.28,2.23q-1,7.81-9.48,9.63l-2.1.14,11.86,26.64Zm-2.79-35.15,1.25-.28a3.35,3.35,0,0,0,2-2l.28-1.26V97.93l-.28-1.26a3.35,3.35,0,0,0-2-2l-1.25-.14v-.14H251.76v18.13Z"/><path class="cls-1" d="M323.31,147.72v-.14h-29V85.79l31.38.14A12.46,12.46,0,0,1,332,89.35a10.15,10.15,0,0,1,3.2,6.2l.28,2.38h-.14v11h.14l-.28,2.24a8.14,8.14,0,0,1-2.09,4.88l-.56.55.56.7a9.11,9.11,0,0,1,2.09,4.88l.28,2.24h-.14v11.15h.14l-.28,2.23a10.85,10.85,0,0,1-3.27,6.28,10.51,10.51,0,0,1-6.21,3.35Zm0-35.29v-.14l.14.14,1.12-.28a3.4,3.4,0,0,0,1.95-2l.28-1.26v-11l-.28-1.4a3.4,3.4,0,0,0-1.95-2l-1.26-.14V94.3h-20.5v18.13Zm0,26.64,1.26-.28a3.4,3.4,0,0,0,1.95-1.95l.28-1.26V124.43l-.28-1.26a3.4,3.4,0,0,0-1.95-2l-1.12-.28-.14.14v-.14h-20.5v18.13Z"/><path class="cls-1" d="M345.62,147.72V85.93h41.15v8.51H354.13v18.13h24v8.51h-24v18.13h32.64v8.51Z"/><path class="cls-1" d="M426.1,147.72l-11.86-26.64H402.8v26.64h-8.5V85.93l31.38.14q8.51,1.82,9.48,9.62l.28,2.24h-.14v11.15h.14l-.28,2.23q-1,7.81-9.48,9.63l-2.1.14,11.86,26.64Zm-2.79-35.15,1.25-.28a3.35,3.35,0,0,0,1.95-2l.28-1.26V97.93l-.28-1.26a3.35,3.35,0,0,0-1.95-2l-1.25-.14v-.14H402.8v18.13Z"/><path class="cls-1" d="M455.24,147.58a12.23,12.23,0,0,1-9.62-9.63l-.14-2.37V85.79H454v49.79h.14l.14,1.4a3.42,3.42,0,0,0,2,1.81l1.39.28h16.88l1.39-.28a3.42,3.42,0,0,0,1.95-1.81l.14-1.4h.14V85.79h8.51L486.48,138a12.23,12.23,0,0,1-9.62,9.63l-2.37.14Z"/><path class="cls-1" d="M509.63,147.72l-2.37-.28q-8-1-9.62-9.49l-.14-2.37v-2.51H506v2.51h.14l.14,1.4a3.34,3.34,0,0,0,1.95,1.81l1.39.28h16.88l1.39-.28a3.39,3.39,0,0,0,2-1.81l.14-1.4h.13v-11H530l-.14-1.25a4,4,0,0,0-2-2l-1.39-.28v-.14l-19.25-.14a12.23,12.23,0,0,1-9.62-9.63l-.14-2.23v-11l.14-2.38a12.28,12.28,0,0,1,3.42-6.27,10.22,10.22,0,0,1,6.2-3.21l2.37-.28v.14h16.88v-.14l2.37.28a10.27,10.27,0,0,1,6.21,3.21,12.34,12.34,0,0,1,3.41,6.27l.14,2.38V100h-8.51V97.93H530l-.14-1.26a3.39,3.39,0,0,0-2-2l-1.39-.28H509.63l-1.39.28a3.34,3.34,0,0,0-1.95,2l-.14,1.26H506v11h.14l.14,1.26a3.35,3.35,0,0,0,1.95,2l1.39.28h17.16l2.09.28a10.27,10.27,0,0,1,6.21,3.21,12.34,12.34,0,0,1,3.41,6.27l.14,2.37v11L538.5,138q-1.82,8.51-9.62,9.49l-2.37.28Z"/></g></g></svg>